<svg width="1080" height="1080" viewBox="0 0 1080 1080" fill="none" xmlns="http://www.w3.org/2000/svg">
<rect width="1080" height="1080" rx="50" fill="#0E1593"/>
<rect width="410.192" height="131.346" rx="20" transform="matrix(0.978148 -0.207912 0.215187 0.976573 286.995 336.135)" fill="white"/>
<rect width="410.192" height="131.346" rx="20" transform="matrix(0.978148 -0.207912 0.215187 0.976573 363.524 700.879)" fill="white"/>
<rect width="222.712" height="131.346" rx="20" transform="matrix(0.978148 -0.207912 0.215187 0.976573 325.738 518.406)" fill="white"/>
<rect width="222.712" height="131.346" rx="20" transform="matrix(0.978148 -0.207912 0.215187 0.976573 354.002 532.199)" fill="white" fill-opacity="0.5"/>
<rect width="410.192" height="131.346" rx="20" transform="matrix(0.978148 -0.207912 0.215187 0.976573 315.259 357.625)" fill="white" fill-opacity="0.5"/>
<rect width="410.192" height="131.346" rx="20" transform="matrix(0.978148 -0.207912 0.215187 0.976573 391.788 722.369)" fill="white" fill-opacity="0.5"/>
<rect width="410.192" height="131.346" rx="20" transform="matrix(0.978148 -0.207912 0.215187 0.976573 286.995 336.133)" fill="white"/>
<rect width="410.192" height="131.346" rx="20" transform="matrix(0.978148 -0.207912 0.215187 0.976573 363.524 700.877)" fill="white"/>
<rect width="222.712" height="131.346" rx="20" transform="matrix(0.978148 -0.207912 0.215187 0.976573 325.738 518.404)" fill="white"/>
</svg>